<svg width="177" height="180" viewBox="0 0 177 180" fill="none" xmlns="http://www.w3.org/2000/svg">
<path d="M65.3496 172.082C65.3496 172.51 65.2676 172.911 65.1035 173.286C64.9453 173.661 64.7256 173.989 64.4443 174.271C64.1631 174.552 63.835 174.774 63.46 174.938C63.085 175.097 62.6836 175.176 62.2559 175.176H61.3594C60.9316 175.176 60.5273 175.097 60.1465 174.938C59.7715 174.774 59.4434 174.552 59.1621 174.271C58.8809 173.989 58.6582 173.661 58.4941 173.286C58.3359 172.911 58.2568 172.51 58.2568 172.082V165.314C58.2568 164.887 58.3359 164.485 58.4941 164.11C58.6582 163.735 58.8809 163.407 59.1621 163.126C59.4434 162.845 59.7715 162.625 60.1465 162.467C60.5273 162.303 60.9316 162.221 61.3594 162.221H62.2559C62.6836 162.221 63.085 162.303 63.46 162.467C63.835 162.625 64.1631 162.845 64.4443 163.126C64.7256 163.407 64.9453 163.735 65.1035 164.11C65.2676 164.485 65.3496 164.887 65.3496 165.314V165.824L64.2158 166V165.314C64.2158 165.033 64.1631 164.772 64.0576 164.532C63.9521 164.286 63.8086 164.072 63.627 163.891C63.4453 163.709 63.2314 163.565 62.9854 163.46C62.7451 163.354 62.4844 163.302 62.2031 163.302H61.4121C61.1309 163.302 60.8672 163.354 60.6211 163.46C60.3809 163.565 60.167 163.709 59.9795 163.891C59.7979 164.072 59.6543 164.286 59.5488 164.532C59.4434 164.772 59.3906 165.033 59.3906 165.314V172.082C59.3906 172.363 59.4434 172.627 59.5488 172.873C59.6543 173.113 59.7979 173.327 59.9795 173.515C60.167 173.696 60.3809 173.84 60.6211 173.945C60.8672 174.051 61.1309 174.104 61.4121 174.104H62.2031C62.4844 174.104 62.7451 174.051 62.9854 173.945C63.2314 173.84 63.4453 173.696 63.627 173.515C63.8086 173.327 63.9521 173.113 64.0576 172.873C64.1631 172.627 64.2158 172.363 64.2158 172.082V171.396L65.3496 171.581V172.082ZM73.1719 175L72.5742 174.104C72.3281 174.426 72.0205 174.687 71.6514 174.886C71.2822 175.079 70.8779 175.176 70.4385 175.176H70.166C69.8027 175.176 69.46 175.108 69.1377 174.974C68.8154 174.833 68.5342 174.643 68.2939 174.402C68.0537 174.162 67.8633 173.881 67.7227 173.559C67.5879 173.236 67.5205 172.894 67.5205 172.53V172.442C67.5205 172.079 67.5879 171.736 67.7227 171.414C67.8633 171.092 68.0537 170.811 68.2939 170.57C68.5342 170.33 68.8154 170.143 69.1377 170.008C69.46 169.867 69.8027 169.797 70.166 169.797H72.4512V168.408C72.4512 168.191 72.4102 167.989 72.3281 167.802C72.2461 167.608 72.1348 167.441 71.9941 167.301C71.8535 167.16 71.6865 167.049 71.4932 166.967C71.3057 166.885 71.1035 166.844 70.8867 166.844H70.2539C70.0371 166.844 69.832 166.885 69.6387 166.967C69.4512 167.049 69.2871 167.16 69.1465 167.301C69.0059 167.441 68.8945 167.608 68.8125 167.802C68.7305 167.989 68.6895 168.191 68.6895 168.408V168.733L67.6084 168.558V168.47C67.6084 168.106 67.6758 167.764 67.8105 167.441C67.9512 167.119 68.1416 166.838 68.3818 166.598C68.6221 166.357 68.9033 166.17 69.2256 166.035C69.5479 165.895 69.8906 165.824 70.2539 165.824H70.8867C71.25 165.824 71.5928 165.895 71.915 166.035C72.2373 166.17 72.5186 166.357 72.7588 166.598C72.999 166.838 73.1865 167.119 73.3213 167.441C73.4619 167.764 73.5322 168.106 73.5322 168.47V175H73.1719ZM72.4512 170.641H70.166C69.9492 170.641 69.7441 170.682 69.5508 170.764C69.3633 170.846 69.1992 170.96 69.0586 171.106C68.918 171.247 68.8066 171.414 68.7246 171.607C68.6426 171.795 68.6016 171.997 68.6016 172.214V172.592C68.6016 172.809 68.6426 173.014 68.7246 173.207C68.8066 173.395 68.918 173.559 69.0586 173.699C69.1992 173.84 69.3633 173.951 69.5508 174.033C69.7441 174.115 69.9492 174.156 70.166 174.156H70.8867C71.1035 174.156 71.3057 174.115 71.4932 174.033C71.6865 173.951 71.8535 173.84 71.9941 173.699C72.1348 173.559 72.2461 173.395 72.3281 173.207C72.4102 173.014 72.4512 172.809 72.4512 172.592V170.641ZM81.3457 175L80.748 174.086C80.502 174.42 80.1943 174.687 79.8252 174.886C79.4561 175.079 79.0518 175.176 78.6123 175.176H78.3398C77.9766 175.176 77.6338 175.108 77.3115 174.974C76.9893 174.833 76.708 174.643 76.4678 174.402C76.2275 174.162 76.0371 173.881 75.8965 173.559C75.7617 173.236 75.6943 172.894 75.6943 172.53V168.47C75.6943 168.106 75.7617 167.764 75.8965 167.441C76.0371 167.119 76.2275 166.838 76.4678 166.598C76.708 166.357 76.9893 166.17 77.3115 166.035C77.6338 165.895 77.9766 165.824 78.3398 165.824H78.6123C79.0166 165.824 79.3916 165.906 79.7373 166.07C80.083 166.234 80.3789 166.463 80.625 166.756V162.396H81.7061V175H81.3457ZM80.625 168.408C80.625 168.191 80.584 167.989 80.502 167.802C80.4199 167.608 80.3086 167.441 80.168 167.301C80.0273 167.16 79.8604 167.049 79.667 166.967C79.4795 166.885 79.2773 166.844 79.0605 166.844H78.3398C78.123 166.844 77.918 166.885 77.7246 166.967C77.5371 167.049 77.373 167.16 77.2324 167.301C77.0918 167.441 76.9805 167.608 76.8984 167.802C76.8164 167.989 76.7754 168.191 76.7754 168.408V172.592C76.7754 172.809 76.8164 173.014 76.8984 173.207C76.9805 173.395 77.0918 173.559 77.2324 173.699C77.373 173.84 77.5371 173.951 77.7246 174.033C77.918 174.115 78.123 174.156 78.3398 174.156H79.0605C79.2773 174.156 79.4795 174.115 79.667 174.033C79.8604 173.951 80.0273 173.84 80.168 173.699C80.3086 173.559 80.4199 173.395 80.502 173.207C80.584 173.014 80.625 172.809 80.625 172.592V168.408ZM89.5195 175L88.9219 174.104C88.6758 174.426 88.3682 174.687 87.999 174.886C87.6299 175.079 87.2256 175.176 86.7861 175.176H86.5137C86.1504 175.176 85.8076 175.108 85.4854 174.974C85.1631 174.833 84.8818 174.643 84.6416 174.402C84.4014 174.162 84.2109 173.881 84.0703 173.559C83.9355 173.236 83.8682 172.894 83.8682 172.53V172.442C83.8682 172.079 83.9355 171.736 84.0703 171.414C84.2109 171.092 84.4014 170.811 84.6416 170.57C84.8818 170.33 85.1631 170.143 85.4854 170.008C85.8076 169.867 86.1504 169.797 86.5137 169.797H88.7988V168.408C88.7988 168.191 88.7578 167.989 88.6758 167.802C88.5938 167.608 88.4824 167.441 88.3418 167.301C88.2012 167.16 88.0342 167.049 87.8408 166.967C87.6533 166.885 87.4512 166.844 87.2344 166.844H86.6016C86.3848 166.844 86.1797 166.885 85.9863 166.967C85.7988 167.049 85.6348 167.16 85.4941 167.301C85.3535 167.441 85.2422 167.608 85.1602 167.802C85.0781 167.989 85.0371 168.191 85.0371 168.408V168.733L83.9561 168.558V168.47C83.9561 168.106 84.0234 167.764 84.1582 167.441C84.2988 167.119 84.4893 166.838 84.7295 166.598C84.9697 166.357 85.251 166.17 85.5732 166.035C85.8955 165.895 86.2383 165.824 86.6016 165.824H87.2344C87.5977 165.824 87.9404 165.895 88.2627 166.035C88.585 166.17 88.8662 166.357 89.1064 166.598C89.3467 166.838 89.5342 167.119 89.6689 167.441C89.8096 167.764 89.8799 168.106 89.8799 168.47V175H89.5195ZM88.7988 170.641H86.5137C86.2969 170.641 86.0918 170.682 85.8984 170.764C85.7109 170.846 85.5469 170.96 85.4062 171.106C85.2656 171.247 85.1543 171.414 85.0723 171.607C84.9902 171.795 84.9492 171.997 84.9492 172.214V172.592C84.9492 172.809 84.9902 173.014 85.0723 173.207C85.1543 173.395 85.2656 173.559 85.4062 173.699C85.5469 173.84 85.7109 173.951 85.8984 174.033C86.0918 174.115 86.2969 174.156 86.5137 174.156H87.2344C87.4512 174.156 87.6533 174.115 87.8408 174.033C88.0342 173.951 88.2012 173.84 88.3418 173.699C88.4824 173.559 88.5938 173.395 88.6758 173.207C88.7578 173.014 88.7988 172.809 88.7988 172.592V170.641ZM98.2295 172.715C98.2295 173.078 98.1562 173.412 98.0098 173.717C97.8633 174.016 97.6641 174.273 97.4121 174.49C97.1602 174.707 96.8672 174.877 96.5332 175C96.2051 175.117 95.8594 175.176 95.4961 175.176H94.7754C94.4121 175.176 94.0635 175.108 93.7295 174.974C93.4014 174.833 93.1113 174.643 92.8594 174.402C92.6133 174.162 92.4141 173.881 92.2617 173.559C92.1152 173.236 92.042 172.894 92.042 172.53V172.17L93.123 171.994V172.592C93.123 172.809 93.167 173.014 93.2549 173.207C93.3486 173.395 93.4717 173.559 93.624 173.699C93.7764 173.84 93.9521 173.951 94.1514 174.033C94.3506 174.115 94.5586 174.156 94.7754 174.156H95.4961C95.7129 174.156 95.9209 174.124 96.1201 174.06C96.3193 173.995 96.4951 173.904 96.6475 173.787C96.8057 173.664 96.9287 173.518 97.0166 173.348C97.1104 173.178 97.1572 172.984 97.1572 172.768C97.1572 172.445 97.0869 172.182 96.9463 171.977C96.8057 171.771 96.6182 171.602 96.3838 171.467C96.1553 171.326 95.8916 171.212 95.5928 171.124C95.2998 171.03 94.998 170.939 94.6875 170.852C94.377 170.758 94.0723 170.652 93.7734 170.535C93.4805 170.418 93.2168 170.266 92.9824 170.078C92.7539 169.885 92.5693 169.645 92.4287 169.357C92.2881 169.07 92.2178 168.713 92.2178 168.285C92.2178 167.922 92.2881 167.591 92.4287 167.292C92.5693 166.987 92.7598 166.727 93 166.51C93.2402 166.293 93.5186 166.126 93.835 166.009C94.1572 165.886 94.5 165.824 94.8633 165.824H95.4961C95.8594 165.824 96.2021 165.895 96.5244 166.035C96.8467 166.17 97.1279 166.357 97.3682 166.598C97.6084 166.838 97.7959 167.119 97.9307 167.441C98.0713 167.764 98.1416 168.106 98.1416 168.47V168.505L97.0605 168.681V168.408C97.0605 168.191 97.0195 167.989 96.9375 167.802C96.8555 167.608 96.7441 167.441 96.6035 167.301C96.4629 167.16 96.2959 167.049 96.1025 166.967C95.915 166.885 95.7129 166.844 95.4961 166.844H94.8633C94.6465 166.844 94.4414 166.876 94.248 166.94C94.0605 167.005 93.8965 167.099 93.7559 167.222C93.6152 167.339 93.5039 167.482 93.4219 167.652C93.3398 167.822 93.2988 168.016 93.2988 168.232C93.2988 168.543 93.3691 168.798 93.5098 168.997C93.6504 169.19 93.835 169.354 94.0635 169.489C94.2979 169.624 94.5615 169.738 94.8545 169.832C95.1533 169.92 95.4551 170.014 95.7598 170.113C96.0703 170.207 96.3721 170.315 96.665 170.438C96.9639 170.562 97.2275 170.72 97.4561 170.913C97.6904 171.106 97.8779 171.35 98.0186 171.643C98.1592 171.93 98.2295 172.287 98.2295 172.715ZM103.582 175C103.254 175 102.943 174.938 102.65 174.815C102.363 174.692 102.111 174.522 101.895 174.306C101.684 174.089 101.514 173.837 101.385 173.55C101.262 173.263 101.2 172.955 101.2 172.627V167.028H99.583V166H101.2V163.838L102.281 163.662V166H104.566V167.028H102.281V172.68C102.281 172.861 102.313 173.031 102.378 173.189C102.448 173.342 102.542 173.477 102.659 173.594C102.776 173.711 102.914 173.805 103.072 173.875C103.23 173.939 103.4 173.972 103.582 173.972H104.566V175H103.582ZM109.207 167.028C108.99 167.028 108.785 167.069 108.592 167.151C108.404 167.233 108.24 167.345 108.1 167.485C107.959 167.626 107.848 167.793 107.766 167.986C107.684 168.174 107.643 168.376 107.643 168.593V175H106.562V166H106.922L107.511 166.914C107.757 166.58 108.064 166.316 108.434 166.123C108.809 165.924 109.216 165.824 109.655 165.824H110.288V167.028H109.207ZM117.741 172.53C117.741 172.894 117.671 173.236 117.53 173.559C117.396 173.881 117.208 174.162 116.968 174.402C116.728 174.643 116.446 174.833 116.124 174.974C115.802 175.108 115.459 175.176 115.096 175.176H114.375C114.012 175.176 113.669 175.108 113.347 174.974C113.024 174.833 112.743 174.643 112.503 174.402C112.263 174.162 112.072 173.881 111.932 173.559C111.797 173.236 111.729 172.894 111.729 172.53V168.47C111.729 168.106 111.797 167.764 111.932 167.441C112.072 167.119 112.263 166.838 112.503 166.598C112.743 166.357 113.024 166.17 113.347 166.035C113.669 165.895 114.012 165.824 114.375 165.824H115.096C115.459 165.824 115.802 165.895 116.124 166.035C116.446 166.17 116.728 166.357 116.968 166.598C117.208 166.838 117.396 167.119 117.53 167.441C117.671 167.764 117.741 168.106 117.741 168.47V172.53ZM116.66 168.408C116.66 168.191 116.619 167.989 116.537 167.802C116.455 167.608 116.344 167.441 116.203 167.301C116.062 167.16 115.896 167.049 115.702 166.967C115.515 166.885 115.312 166.844 115.096 166.844H114.375C114.158 166.844 113.953 166.885 113.76 166.967C113.572 167.049 113.408 167.16 113.268 167.301C113.127 167.441 113.016 167.608 112.934 167.802C112.852 167.989 112.811 168.191 112.811 168.408V172.592C112.811 172.809 112.852 173.014 112.934 173.207C113.016 173.395 113.127 173.559 113.268 173.699C113.408 173.84 113.572 173.951 113.76 174.033C113.953 174.115 114.158 174.156 114.375 174.156H115.096C115.312 174.156 115.515 174.115 115.702 174.033C115.896 173.951 116.062 173.84 116.203 173.699C116.344 173.559 116.455 173.395 116.537 173.207C116.619 173.014 116.66 172.809 116.66 172.592V168.408Z" fill="white"/>
<path d="M49.0781 94V47.9219L48.6562 50.7812L33.0469 94H29.8594L14.1094 50.7812L13.7344 47.9219V94H7.6875V26.7812H10.8281L31.2188 81.9062L31.4062 84.3906L31.5938 81.9062L51.9375 26.7812H55.125V94H49.0781ZM86.8125 32.5469V94H80.7656V32.5469H64.7344V26.7812H102.844V32.5469H86.8125ZM144.281 94V63.2969H118.547V94H112.5V26.7812H118.547V57.5312H144.281V26.7812H150.328V94H144.281ZM162.797 94V86.7812H170.016V94H162.797Z" fill="white"/>
<path d="M33.3438 139C33.3438 140.521 33.0521 141.948 32.4688 143.281C31.9062 144.615 31.125 145.781 30.125 146.781C29.125 147.781 27.9479 148.573 26.5938 149.156C25.2604 149.719 23.8333 150 22.3125 150H8.125V105.188H22.3125C23.8333 105.188 25.2604 105.479 26.5938 106.062C27.9479 106.625 29.125 107.406 30.125 108.406C31.125 109.406 31.9062 110.583 32.4688 111.938C33.0521 113.271 33.3438 114.698 33.3438 116.219V139ZM29.3125 116.219C29.3125 115.219 29.125 114.292 28.75 113.438C28.375 112.562 27.8542 111.802 27.1875 111.156C26.5417 110.49 25.7812 109.969 24.9062 109.594C24.0521 109.219 23.125 109.031 22.125 109.031H12.1562V146.156H22.125C23.125 146.156 24.0521 145.969 24.9062 145.594C25.7812 145.219 26.5417 144.708 27.1875 144.062C27.8542 143.417 28.375 142.667 28.75 141.812C29.125 140.938 29.3125 140 29.3125 139V116.219ZM42.9375 150V105.188H68.1562V109.031H46.9688V125.688H64.125V129.531H46.9688V146.156H68.1562V150H42.9375ZM85.4688 140.156L85.5938 141.812L85.7188 140.156L95.6562 105.188H99.8125L86.625 150H84.5L71.375 105.188H75.5625L85.4688 140.156ZM103 125.562H116.938V111.594H120.969V125.562H135V129.594H120.969V143.594H116.938V129.594H103V125.562ZM140.125 125.562H154.062V111.594H158.094V125.562H172.125V129.594H158.094V143.594H154.062V129.594H140.125V125.562Z" fill="white"/>
</svg>
