<svg width="177" height="180" viewBox="0 0 177 180" fill="none" xmlns="http://www.w3.org/2000/svg">
<path d="M70.2568 175V162.396H71.3906V173.919H76.2158V175H70.2568ZM83.6689 172.53C83.6689 172.894 83.5986 173.236 83.458 173.559C83.3232 173.881 83.1357 174.162 82.8955 174.402C82.6553 174.643 82.374 174.833 82.0518 174.974C81.7295 175.108 81.3867 175.176 81.0234 175.176H80.3027C79.9395 175.176 79.5967 175.108 79.2744 174.974C78.9521 174.833 78.6709 174.643 78.4307 174.402C78.1904 174.162 78 173.881 77.8594 173.559C77.7246 173.236 77.6572 172.894 77.6572 172.53V168.47C77.6572 168.106 77.7246 167.764 77.8594 167.441C78 167.119 78.1904 166.838 78.4307 166.598C78.6709 166.357 78.9521 166.17 79.2744 166.035C79.5967 165.895 79.9395 165.824 80.3027 165.824H81.0234C81.3867 165.824 81.7295 165.895 82.0518 166.035C82.374 166.17 82.6553 166.357 82.8955 166.598C83.1357 166.838 83.3232 167.119 83.458 167.441C83.5986 167.764 83.6689 168.106 83.6689 168.47V172.53ZM82.5879 168.408C82.5879 168.191 82.5469 167.989 82.4648 167.802C82.3828 167.608 82.2715 167.441 82.1309 167.301C81.9902 167.16 81.8232 167.049 81.6299 166.967C81.4424 166.885 81.2402 166.844 81.0234 166.844H80.3027C80.0859 166.844 79.8809 166.885 79.6875 166.967C79.5 167.049 79.3359 167.16 79.1953 167.301C79.0547 167.441 78.9434 167.608 78.8613 167.802C78.7793 167.989 78.7383 168.191 78.7383 168.408V172.592C78.7383 172.809 78.7793 173.014 78.8613 173.207C78.9434 173.395 79.0547 173.559 79.1953 173.699C79.3359 173.84 79.5 173.951 79.6875 174.033C79.8809 174.115 80.0859 174.156 80.3027 174.156H81.0234C81.2402 174.156 81.4424 174.115 81.6299 174.033C81.8232 173.951 81.9902 173.84 82.1309 173.699C82.2715 173.559 82.3828 173.395 82.4648 173.207C82.5469 173.014 82.5879 172.809 82.5879 172.592V168.408ZM91.9307 176.134C91.9307 176.497 91.8604 176.831 91.7197 177.136C91.585 177.44 91.3975 177.701 91.1572 177.918C90.917 178.135 90.6357 178.302 90.3135 178.419C89.9912 178.542 89.6484 178.604 89.2852 178.604H88.8369C88.4736 178.604 88.1309 178.542 87.8086 178.419C87.4863 178.302 87.2051 178.135 86.9648 177.918C86.7246 177.701 86.5342 177.44 86.3936 177.136C86.2588 176.831 86.1914 176.497 86.1914 176.134V176.099C86.1914 175.747 86.2559 175.425 86.3848 175.132C86.5137 174.839 86.6895 174.584 86.9121 174.367C86.6309 174.197 86.4053 173.969 86.2354 173.682C86.0713 173.389 85.9893 173.066 85.9893 172.715C85.9893 172.398 86.0566 172.105 86.1914 171.836C86.3262 171.561 86.5107 171.338 86.7451 171.168C86.4639 170.922 86.2412 170.626 86.0771 170.28C85.9131 169.935 85.8311 169.557 85.8311 169.146V168.47C85.8311 168.106 85.8984 167.764 86.0332 167.441C86.1738 167.119 86.3643 166.838 86.6045 166.598C86.8447 166.357 87.126 166.17 87.4482 166.035C87.7705 165.895 88.1133 165.824 88.4766 165.824H88.9248C89.3643 165.824 89.7686 165.924 90.1377 166.123C90.5127 166.316 90.8232 166.58 91.0693 166.914L91.6582 166H92.0186V169.146C92.0186 169.51 91.9482 169.853 91.8076 170.175C91.6729 170.497 91.4854 170.778 91.2451 171.019C91.0049 171.259 90.7236 171.449 90.4014 171.59C90.0791 171.725 89.7363 171.792 89.373 171.792H87.8086C87.6855 171.792 87.5684 171.818 87.457 171.871C87.3457 171.918 87.2461 171.982 87.1582 172.064C87.0762 172.146 87.0117 172.246 86.9648 172.363C86.918 172.475 86.8945 172.592 86.8945 172.715C86.8945 172.838 86.918 172.955 86.9648 173.066C87.0117 173.178 87.0762 173.277 87.1582 173.365C87.2461 173.447 87.3457 173.512 87.457 173.559C87.5684 173.605 87.6855 173.629 87.8086 173.629H89.2852C89.6484 173.629 89.9912 173.69 90.3135 173.813C90.6357 173.931 90.917 174.098 91.1572 174.314C91.3975 174.531 91.585 174.792 91.7197 175.097C91.8604 175.401 91.9307 175.735 91.9307 176.099V176.134ZM90.9463 168.408C90.9463 168.191 90.9053 167.989 90.8232 167.802C90.7412 167.608 90.627 167.441 90.4805 167.301C90.3398 167.16 90.1729 167.049 89.9795 166.967C89.792 166.885 89.5898 166.844 89.373 166.844H88.4766C88.2598 166.844 88.0547 166.885 87.8613 166.967C87.6738 167.049 87.5098 167.16 87.3691 167.301C87.2285 167.441 87.1172 167.608 87.0352 167.802C86.9531 167.989 86.9121 168.191 86.9121 168.408V169.208C86.9121 169.425 86.9531 169.63 87.0352 169.823C87.1172 170.011 87.2285 170.175 87.3691 170.315C87.5098 170.456 87.6738 170.567 87.8613 170.649C88.0547 170.731 88.2598 170.772 88.4766 170.772H89.373C89.5898 170.772 89.792 170.731 89.9795 170.649C90.1729 170.567 90.3398 170.456 90.4805 170.315C90.627 170.175 90.7412 170.011 90.8232 169.823C90.9053 169.63 90.9463 169.425 90.9463 169.208V168.408ZM90.9023 176.046C90.9023 175.829 90.8613 175.633 90.7793 175.457C90.6973 175.287 90.5859 175.144 90.4453 175.026C90.3047 174.909 90.1377 174.818 89.9443 174.754C89.7568 174.689 89.5547 174.657 89.3379 174.657H88.7842C88.5674 174.657 88.3623 174.689 88.1689 174.754C87.9814 174.818 87.8174 174.909 87.6768 175.026C87.5361 175.144 87.4248 175.287 87.3428 175.457C87.2607 175.633 87.2197 175.829 87.2197 176.046V176.187C87.2197 176.403 87.2607 176.597 87.3428 176.767C87.4248 176.937 87.5361 177.08 87.6768 177.197C87.8174 177.32 87.9814 177.414 88.1689 177.479C88.3623 177.543 88.5674 177.575 88.7842 177.575H89.3379C89.5547 177.575 89.7568 177.543 89.9443 177.479C90.1377 177.414 90.3047 177.32 90.4453 177.197C90.5859 177.08 90.6973 176.937 90.7793 176.767C90.8613 176.597 90.9023 176.403 90.9023 176.187V176.046ZM94.2773 163.838V162.396H95.5342V163.838H94.2773ZM94.3652 175V166H95.4463V175H94.3652ZM102.908 175V168.408C102.908 168.191 102.867 167.989 102.785 167.802C102.703 167.608 102.592 167.441 102.451 167.301C102.311 167.16 102.144 167.049 101.95 166.967C101.763 166.885 101.561 166.844 101.344 166.844H100.623C100.406 166.844 100.201 166.885 100.008 166.967C99.8203 167.049 99.6562 167.16 99.5156 167.301C99.375 167.441 99.2637 167.608 99.1816 167.802C99.0996 167.989 99.0586 168.191 99.0586 168.408V175H97.9775V166H98.3379L98.9268 166.914C99.1729 166.58 99.4805 166.316 99.8496 166.123C100.225 165.924 100.632 165.824 101.071 165.824H101.344C101.707 165.824 102.05 165.895 102.372 166.035C102.694 166.17 102.976 166.357 103.216 166.598C103.456 166.838 103.644 167.119 103.778 167.441C103.919 167.764 103.989 168.106 103.989 168.47V175H102.908Z" fill="white"/>
<path d="M49.0781 94V47.9219L48.6562 50.7812L33.0469 94H29.8594L14.1094 50.7812L13.7344 47.9219V94H7.6875V26.7812H10.8281L31.2188 81.9062L31.4062 84.3906L31.5938 81.9062L51.9375 26.7812H55.125V94H49.0781ZM86.8125 32.5469V94H80.7656V32.5469H64.7344V26.7812H102.844V32.5469H86.8125ZM144.281 94V63.2969H118.547V94H112.5V26.7812H118.547V57.5312H144.281V26.7812H150.328V94H144.281ZM162.797 94V86.7812H170.016V94H162.797Z" fill="white"/>
<path d="M33.3438 139C33.3438 140.521 33.0521 141.948 32.4688 143.281C31.9062 144.615 31.125 145.781 30.125 146.781C29.125 147.781 27.9479 148.573 26.5938 149.156C25.2604 149.719 23.8333 150 22.3125 150H8.125V105.188H22.3125C23.8333 105.188 25.2604 105.479 26.5938 106.062C27.9479 106.625 29.125 107.406 30.125 108.406C31.125 109.406 31.9062 110.583 32.4688 111.938C33.0521 113.271 33.3438 114.698 33.3438 116.219V139ZM29.3125 116.219C29.3125 115.219 29.125 114.292 28.75 113.438C28.375 112.562 27.8542 111.802 27.1875 111.156C26.5417 110.49 25.7812 109.969 24.9062 109.594C24.0521 109.219 23.125 109.031 22.125 109.031H12.1562V146.156H22.125C23.125 146.156 24.0521 145.969 24.9062 145.594C25.7812 145.219 26.5417 144.708 27.1875 144.062C27.8542 143.417 28.375 142.667 28.75 141.812C29.125 140.938 29.3125 140 29.3125 139V116.219ZM42.9375 150V105.188H68.1562V109.031H46.9688V125.688H64.125V129.531H46.9688V146.156H68.1562V150H42.9375ZM85.4688 140.156L85.5938 141.812L85.7188 140.156L95.6562 105.188H99.8125L86.625 150H84.5L71.375 105.188H75.5625L85.4688 140.156ZM103 125.562H116.938V111.594H120.969V125.562H135V129.594H120.969V143.594H116.938V129.594H103V125.562ZM140.125 125.562H154.062V111.594H158.094V125.562H172.125V129.594H158.094V143.594H154.062V129.594H140.125V125.562Z" fill="white"/>
</svg>
