<svg width="183" height="82" viewBox="0 0 183 82" fill="none" xmlns="http://www.w3.org/2000/svg">
<path d="M32.7188 63V32.2812L32.4375 34.1875L22.0312 63H19.9062L9.40625 34.1875L9.15625 32.2812V63H5.125V18.1875H7.21875L20.8125 54.9375L20.9375 56.5938L21.0625 54.9375L34.625 18.1875H36.75V63H32.7188ZM57.875 22.0312V63H53.8438V22.0312H43.1562V18.1875H68.5625V22.0312H57.875ZM96.1875 63V42.5312H79.0312V63H75V18.1875H79.0312V38.6875H96.1875V18.1875H100.219V63H96.1875ZM108.531 63V58.1875H113.344V63H108.531Z" fill="white"/>
<path d="M129.379 58.875C129.379 59.4453 129.27 59.9805 129.051 60.4805C128.84 60.9805 128.547 61.418 128.172 61.793C127.797 62.168 127.355 62.4648 126.848 62.6836C126.348 62.8945 125.812 63 125.242 63H119.922V46.1953H125.242C125.812 46.1953 126.348 46.3047 126.848 46.5234C127.355 46.7344 127.797 47.0273 128.172 47.4023C128.547 47.7773 128.84 48.2188 129.051 48.7266C129.27 49.2266 129.379 49.7617 129.379 50.332V58.875ZM127.867 50.332C127.867 49.957 127.797 49.6094 127.656 49.2891C127.516 48.9609 127.32 48.6758 127.07 48.4336C126.828 48.1836 126.543 47.9883 126.215 47.8477C125.895 47.707 125.547 47.6367 125.172 47.6367H121.434V61.5586H125.172C125.547 61.5586 125.895 61.4883 126.215 61.3477C126.543 61.207 126.828 61.0156 127.07 60.7734C127.32 60.5312 127.516 60.25 127.656 59.9297C127.797 59.6016 127.867 59.25 127.867 58.875V50.332ZM132.977 63V46.1953H142.434V47.6367H134.488V53.8828H140.922V55.3242H134.488V61.5586H142.434V63H132.977ZM148.926 59.3086L148.973 59.9297L149.02 59.3086L152.746 46.1953H154.305L149.359 63H148.562L143.641 46.1953H145.211L148.926 59.3086ZM155.5 53.8359H160.727V48.5977H162.238V53.8359H167.5V55.3477H162.238V60.5977H160.727V55.3477H155.5V53.8359ZM169.422 53.8359H174.648V48.5977H176.16V53.8359H181.422V55.3477H176.16V60.5977H174.648V55.3477H169.422V53.8359Z" fill="white"/>
</svg>
